# xmcd
#
# Track frame offsets:
#	150
#	24732
#	46895
#	67305
#	87437
#	109957
#	139385
#	158115
#	177682
#	202185
#	222460
#	242202
#	258292
#	277137
#	291637
#	314315
#
# Disc length: 4394 seconds
#
# Revision: 1
# Processed by: cddbd v1.5PL3 Copyright (c) Steve Scherf et al.
# Submitted via: EasyCDDAExtractor 5.1.0
#
DISCID=14112810
DTITLE=강산에 - The Essence
DYEAR=1900
DGENRE=Bass
TTITLE0=라구요
TTITLE1=넌 할 수 있어
TTITLE2=자유새
TTITLE3=훔쳐본여자
TTITLE4=선
TTITLE5=더이상 더는
TTITLE6=할아버지와 수박
TTITLE7=장가 가는날
TTITLE8=어쩌면
TTITLE9=화초
TTITLE10=태극기
TTITLE11=삐딱하게
TTITLE12=아웃사이더
TTITLE13=여느때와 같이
TTITLE14=문제
TTITLE15=예랄랄라
EXTD=
EXTT0=
EXTT1=
EXTT2=
EXTT3=
EXTT4=
EXTT5=
EXTT6=
EXTT7=
EXTT8=
EXTT9=
EXTT10=
EXTT11=
EXTT12=
EXTT13=
EXTT14=
EXTT15=
PLAYORDER=
